<?xml version="1.0" encoding="UTF-8"?>
<svg width="284px" height="74px" viewBox="0 0 284 74" version="1.1" xmlns="http://www.w3.org/2000/svg" xmlns:xlink="http://www.w3.org/1999/xlink">
    <title>Group</title>
    <defs>
        <filter x="-1.4%" y="-5.6%" width="102.8%" height="111.1%" filterUnits="objectBoundingBox" id="filter-1">
            <feOffset dx="1" dy="1" in="SourceAlpha" result="shadowOffsetOuter1"></feOffset>
            <feGaussianBlur stdDeviation="0.5" in="shadowOffsetOuter1" result="shadowBlurOuter1"></feGaussianBlur>
            <feColorMatrix values="0 0 0 0 0.0655019316   0 0 0 0 0.13701508   0 0 0 0 0.0666193246  0 0 0 1 0" type="matrix" in="shadowBlurOuter1" result="shadowMatrixOuter1"></feColorMatrix>
            <feMerge>
                <feMergeNode in="shadowMatrixOuter1"></feMergeNode>
                <feMergeNode in="SourceGraphic"></feMergeNode>
            </feMerge>
        </filter>
    </defs>
    <g id="Page-1" stroke="none" stroke-width="1" fill="none" fill-rule="evenodd">
        <g id="Group" filter="url(#filter-1)" fill="#A7C5A7" fill-rule="nonzero">
            <path d="M20.3534831,71.6152344 C24.9335612,71.6152344 28.5793945,70.2423503 31.2909831,67.496582 C34.0025716,64.7508138 35.3583659,61.0195312 35.3583659,56.3027344 C35.3583659,52.3378906 34.2019531,49.0338542 31.8891276,46.390625 C29.5763021,43.7473958 26.1526367,41.4459635 21.6181315,39.4863281 L21.6181315,39.4863281 L19.5331706,38.5976562 C17.5279622,37.7089844 16.024056,36.9969076 15.0214518,36.4614258 C14.0188477,35.925944 13.1985352,35.2708333 12.5605143,34.4960938 C11.9224935,33.7213542 11.6034831,32.7985026 11.6034831,31.7275391 C11.6034831,30.5198568 12.1047852,29.5172526 13.1073893,28.7197266 C14.1099935,27.9222005 15.3176758,27.5234375 16.7304362,27.5234375 C18.7356445,27.5234375 20.3705729,28.1557617 21.6352214,29.4204102 C22.8998698,30.6850586 23.7144857,32.570638 24.079069,35.0771484 L24.079069,35.0771484 L32.829069,35.0771484 L32.829069,19.4912109 L24.079069,19.4912109 L24.079069,23.7636719 C23.0081055,22.1686198 21.6523112,20.9609375 20.0116862,20.140625 C18.3710612,19.3203125 16.5481445,18.9101562 14.5429362,18.9101562 C12.0364258,18.9101562 9.71790365,19.5310872 7.58736979,20.7729492 C5.45683594,22.0148112 3.78772786,23.718099 2.58004557,25.8828125 C1.37236328,28.047526 0.768522135,30.4401042 0.768522135,33.0605469 C0.768522135,36.4101562 1.91354167,39.3723958 4.20358073,41.9472656 C6.49361979,44.5221354 10.1793294,46.9261068 15.2607096,49.1591797 C18.2457357,50.4580078 20.3591797,51.7511393 21.6010417,53.0385742 C22.8429036,54.3260091 23.4638346,55.7444661 23.4638346,57.2939453 C23.4638346,58.820638 22.9226563,60.1194661 21.8402995,61.1904297 C20.7579427,62.2613932 19.4306315,62.796875 17.8583659,62.796875 C15.5113607,62.796875 13.6485677,62.0050456 12.269987,60.4213867 C10.8914063,58.8377279 10.1109701,56.530599 9.92867839,53.5 L9.92867839,53.5 L1.17867839,53.5 L1.17867839,71 L9.92867839,71 L9.92867839,66.5908203 C12.4124023,69.9404297 15.8873372,71.6152344 20.3534831,71.6152344 Z M53.6718424,71.8544922 C57.1125977,71.8544922 60.2685221,71.0455729 63.1396159,69.4277344 C66.0107096,67.8098958 68.2893555,65.5654297 69.9755534,62.6943359 C71.6617513,59.8232422 72.5048503,56.5989583 72.5048503,53.0214844 C72.5048503,49.4667969 71.695931,46.2652995 70.0780924,43.4169922 C68.4602539,40.5686849 66.2157878,38.3299154 63.344694,36.7006836 C60.4736003,35.0714518 57.2493164,34.2568359 53.6718424,34.2568359 C50.1627279,34.2568359 46.9612305,35.0714518 44.0673503,36.7006836 C41.1734701,38.3299154 38.9005208,40.5686849 37.2485026,43.4169922 C35.5964844,46.2652995 34.7704753,49.4667969 34.7704753,53.0214844 C34.7704753,56.5989583 35.5736979,59.8232422 37.1801432,62.6943359 C38.7865885,65.5654297 41.0253581,67.8098958 43.8964518,69.4277344 C46.7675456,71.0455729 50.0260091,71.8544922 53.6718424,71.8544922 Z M53.6034831,62.9335938 C51.461556,62.9335938 49.746875,62.0506185 48.4594401,60.284668 C47.1720052,58.5187174 46.5282878,56.1888021 46.5282878,53.2949219 C46.5282878,49.8769531 47.1207357,47.3191732 48.3056315,45.621582 C49.4905273,43.9239909 51.2336914,43.0751953 53.5351237,43.0751953 C55.8137695,43.0751953 57.5854167,43.9353841 58.8500651,45.6557617 C60.1147135,47.3761393 60.7470378,49.7630208 60.7470378,52.8164062 C60.7470378,56.0748698 60.1147135,58.5756836 58.8500651,60.3188477 C57.5854167,62.0620117 55.836556,62.9335938 53.6034831,62.9335938 Z M93.7951497,71 L93.7951497,62.7285156 L88.7023763,62.7285156 L88.7023763,19.4912109 L71.6125326,19.4912109 L71.6125326,27.7285156 L77.2180013,27.7285156 L77.2180013,62.7285156 L71.6125326,62.7285156 L71.6125326,71 L93.7951497,71 Z M104.210189,31.1806641 C105.919173,31.1806641 107.394596,30.5825195 108.636458,29.3862305 C109.87832,28.1899414 110.499251,26.6803385 110.499251,24.8574219 C110.499251,23.1484375 109.87832,21.6730143 108.636458,20.4311523 C107.394596,19.1892904 105.919173,18.5683594 104.210189,18.5683594 C102.478418,18.5683594 100.991602,19.1892904 99.7497396,20.4311523 C98.5078776,21.6730143 97.8869466,23.1484375 97.8869466,24.8574219 C97.8869466,26.5891927 98.5078776,28.0760091 99.7497396,29.3178711 C100.991602,30.5597331 102.478418,31.1806641 104.210189,31.1806641 Z M115.113509,71 L115.113509,62.7285156 L109.781478,62.7285156 L109.781478,35.0771484 L92.9308919,35.0771484 L92.9308919,43.4853516 L98.3996419,43.4853516 L98.3996419,62.7285156 L92.9308919,62.7285156 L92.9308919,71 L115.113509,71 Z M125.979004,71.546875 C128.690592,71.546875 131.584473,70.9430339 134.660645,69.7353516 L134.660645,69.7353516 L134.660645,61.7714844 C133.270671,62.2727865 132.085775,62.5234375 131.105957,62.5234375 C129.921061,62.5234375 129.112142,62.2443034 128.679199,61.6860352 C128.246257,61.1277669 128.029785,60.2903646 128.029785,59.1738281 L128.029785,59.1738281 L128.029785,43.4853516 L134.660645,43.4853516 L134.660645,35.0771484 L128.029785,35.0771484 L128.029785,21.3027344 L116.61377,29.5058594 L116.61377,35.0771484 L112.067871,35.0771484 L112.067871,43.4853516 L116.61377,43.4853516 L116.61377,62.4550781 C116.61377,65.3489583 117.394206,67.5877279 118.955078,69.1713867 C120.515951,70.7550456 122.857259,71.546875 125.979004,71.546875 Z M148.70485,71.546875 C151.963314,71.546875 155.221777,70.4303385 158.480241,68.1972656 L158.480241,68.1972656 L158.480241,71 L175.706803,71 L175.706803,62.7285156 L169.896257,62.7285156 L169.896257,49.4326172 C169.896257,44.2600911 168.614518,40.4376628 166.051042,37.965332 C163.487565,35.4930013 159.198014,34.2568359 153.182389,34.2568359 C144.409603,34.2568359 138.621842,37.0823568 135.819108,42.7333984 L135.819108,42.7333984 L145.047624,44.4082031 C146.961686,42.4941406 149.160579,41.5371094 151.644303,41.5371094 C153.922949,41.5371094 155.631934,42.0839844 156.771257,43.1777344 C157.910579,44.2714844 158.480241,45.7298177 158.480241,47.5527344 L158.480241,47.5527344 L158.480241,50.4238281 C156.907975,49.6263021 155.523698,49.0623372 154.327409,48.7319336 C153.13112,48.4015299 151.769629,48.2363281 150.242936,48.2363281 C145.84515,48.2363281 142.318945,49.3357747 139.664323,51.534668 C137.009701,53.7335612 135.682389,56.6559245 135.682389,60.3017578 C135.682389,63.742513 136.867285,66.476888 139.237077,68.5048828 C141.606868,70.5328776 144.762793,71.546875 148.70485,71.546875 Z M151.268327,64.4033203 C148.192155,64.4033203 146.654069,62.796875 146.654069,59.5839844 C146.654069,58.1484375 147.087012,57.0432943 147.952897,56.2685547 C148.818783,55.4938151 150.072038,55.1064453 151.712663,55.1064453 C153.763444,55.1064453 156.019303,55.9039714 158.480241,57.4990234 L158.480241,57.4990234 L158.480241,60.7119141 C155.723079,63.1728516 153.319108,64.4033203 151.268327,64.4033203 Z M186.053483,31.1806641 C187.762467,31.1806641 189.237891,30.5825195 190.479753,29.3862305 C191.721615,28.1899414 192.342546,26.6803385 192.342546,24.8574219 C192.342546,23.1484375 191.721615,21.6730143 190.479753,20.4311523 C189.237891,19.1892904 187.762467,18.5683594 186.053483,18.5683594 C184.321712,18.5683594 182.834896,19.1892904 181.593034,20.4311523 C180.351172,21.6730143 179.730241,23.1484375 179.730241,24.8574219 C179.730241,26.5891927 180.351172,28.0760091 181.593034,29.3178711 C182.834896,30.5597331 184.321712,31.1806641 186.053483,31.1806641 Z M196.956803,71 L196.956803,62.7285156 L191.624772,62.7285156 L191.624772,35.0771484 L174.774186,35.0771484 L174.774186,43.4853516 L180.242936,43.4853516 L180.242936,62.7285156 L174.774186,62.7285156 L174.774186,71 L196.956803,71 Z M221.80179,71 L221.80179,62.7285156 L214.658236,62.7285156 L214.658236,59.1738281 C214.658236,55.6191406 215.165234,52.8847656 216.179232,50.9707031 C217.193229,49.0566406 218.628776,47.706543 220.485872,46.9204102 C222.342969,46.1342773 224.843783,45.6386719 227.988314,45.4335938 L227.988314,45.4335938 L227.988314,34.6669922 C227.737663,34.6214193 227.361686,34.5986328 226.860384,34.5986328 C223.487988,34.5986328 220.662467,35.5100911 218.383822,37.3330078 C216.105176,39.1559245 214.544303,41.4459635 213.701204,44.203125 L213.701204,44.203125 L213.701204,35.0771484 L196.953158,35.0771484 L196.953158,43.4853516 L203.20804,43.4853516 L203.20804,62.7285156 L196.611361,62.7285156 L196.611361,71 L221.80179,71 Z M245.495605,71.8544922 C249.460449,71.8544922 252.889811,71.1196289 255.783691,69.6499023 C258.677572,68.1801758 261.104329,65.9755859 263.063965,63.0361328 L263.063965,63.0361328 L254.177246,60.1650391 C251.465658,62.9905599 248.68571,64.4033203 245.837402,64.4033203 C243.262533,64.4033203 241.160482,63.6000977 239.53125,61.9936523 C237.902018,60.387207 236.950684,58.2054036 236.677246,55.4482422 L236.677246,55.4482422 L263.474121,55.4482422 C263.428548,51.2099609 262.648112,47.4900716 261.132812,44.2885742 C259.617513,41.0870768 257.458496,38.6147461 254.655762,36.871582 C251.853027,35.128418 248.560384,34.2568359 244.777832,34.2568359 C241.291504,34.2568359 238.061523,35.0942383 235.087891,36.769043 C232.114258,38.4438477 229.755859,40.7623698 228.012695,43.7246094 C226.269531,46.686849 225.397949,49.9908854 225.397949,53.6367188 C225.397949,57.328125 226.235352,60.5410156 227.910156,63.2753906 C229.584961,66.0097656 231.943359,68.1232096 234.985352,69.6157227 C238.027344,71.1082357 241.530762,71.8544922 245.495605,71.8544922 Z M251.921387,49.0908203 L236.950684,49.0908203 C237.269694,46.6526693 238.05013,44.8411458 239.291992,43.65625 C240.533854,42.4713542 242.180176,41.8789062 244.230957,41.8789062 C246.190592,41.8789062 247.882487,42.5454102 249.306641,43.878418 C250.730794,45.2114258 251.602376,46.9488932 251.921387,49.0908203 L251.921387,49.0908203 Z M277.825944,53.0214844 L280.765397,33.6074219 L280.765397,19.4912109 L269.281022,19.4912109 L269.281022,33.6074219 L272.493913,53.0214844 L277.825944,53.0214844 Z M281.448991,71 L281.448991,58.5244141 L269.007585,58.5244141 L269.007585,71 L281.448991,71 Z" id="Solitaire!"></path>
            <path d="M38.9995117,4.25 C39.4975586,4.25 39.9272461,4.06933594 40.2885742,3.70800781 C40.6499023,3.34667969 40.8305664,2.91699219 40.8305664,2.41894531 C40.8305664,1.90136719 40.6547852,1.46679688 40.3032227,1.11523438 C39.9516602,0.763671875 39.5170898,0.587890625 38.9995117,0.587890625 C38.5014648,0.587890625 38.0766602,0.768554688 37.7250977,1.12988281 C37.3735352,1.49121094 37.1977539,1.92089844 37.1977539,2.41894531 C37.1977539,2.91699219 37.3735352,3.34667969 37.7250977,3.70800781 C38.0766602,4.06933594 38.5014648,4.25 38.9995117,4.25 Z M42.9985352,23 L42.9985352,20.3046875 L40.6547852,20.3046875 L40.6547852,7.60449219 L35.2202148,7.60449219 L35.2202148,10.3144531 L37.6225586,10.3144531 L37.6225586,20.3046875 L35.2202148,20.3046875 L35.2202148,23 L42.9985352,23 Z M47.6098633,23.2636719 C48.1860352,23.2636719 48.9428711,23.1269531 49.8803711,22.8535156 L49.8803711,22.8535156 L49.8803711,20.1142578 C49.3432617,20.2998047 48.8061523,20.3925781 48.269043,20.3925781 C47.8295898,20.3925781 47.5195312,20.2680664 47.3388672,20.019043 C47.1582031,19.7700195 47.0678711,19.2255859 47.0678711,18.3857422 L47.0678711,18.3857422 L47.0678711,10.3144531 L49.8803711,10.3144531 L49.8803711,7.60449219 L47.0678711,7.60449219 L47.0678711,2.50683594 L44.0356445,5.27539062 L44.0356445,7.60449219 L42.0288086,7.60449219 L42.0288086,10.3144531 L44.0356445,10.3144531 L44.0356445,19.015625 C44.0356445,20.5683594 44.3139648,21.6645508 44.8706055,22.3041992 C45.4272461,22.9438477 46.340332,23.2636719 47.6098633,23.2636719 Z M50.5073242,9.20117188 C51.8842773,9.14257812 52.8779297,8.79833984 53.4882812,8.16845703 C54.0986328,7.53857422 54.4038086,6.51074219 54.4038086,5.08496094 L54.4038086,5.08496094 L54.4038086,0.924804688 L50.5073242,0.924804688 L50.5073242,4.82128906 L52.4262695,4.82128906 L52.4262695,5.11425781 C52.4262695,6.57910156 51.7866211,7.38964844 50.5073242,7.54589844 L50.5073242,7.54589844 L50.5073242,9.20117188 Z M59.9887695,23.2636719 C61.8051758,23.2636719 63.2626953,22.8339844 64.3613281,21.9746094 C65.4599609,21.1152344 66.0092773,19.9775391 66.0092773,18.5615234 C66.0092773,16.1396484 64.4907227,14.6503906 61.4536133,14.09375 L61.4536133,14.09375 L59.4174805,13.6982422 C58.0698242,13.4833984 57.203125,13.234375 56.8173828,12.9511719 C56.4316406,12.6679688 56.2387695,12.2773438 56.2387695,11.7792969 C56.2387695,11.2226562 56.4926758,10.7685547 57.0004883,10.4169922 C57.5083008,10.0654297 58.1625977,9.88964844 58.9633789,9.88964844 C60.4868164,9.88964844 61.6879883,10.5195312 62.5668945,11.7792969 L62.5668945,11.7792969 L62.5668945,12.7167969 L65.2036133,12.7167969 L65.2036133,7.60449219 L62.5668945,7.60449219 L62.5668945,8.26367188 C61.5610352,7.6875 60.3208008,7.39941406 58.8461914,7.39941406 C57.9672852,7.39941406 57.112793,7.5703125 56.2827148,7.91210938 C55.4526367,8.25390625 54.7714844,8.76416016 54.2392578,9.44287109 C53.7070312,10.121582 53.440918,10.9394531 53.440918,11.8964844 C53.440918,13.078125 53.8022461,14.0498047 54.5249023,14.8115234 C55.2475586,15.5732422 56.3852539,16.1103516 57.9379883,16.4228516 L57.9379883,16.4228516 L59.5053711,16.7597656 C60.862793,17.0234375 61.7661133,17.2797852 62.215332,17.5288086 C62.6645508,17.777832 62.8891602,18.1513672 62.8891602,18.6494141 C62.8891602,19.3330078 62.605957,19.8481445 62.0395508,20.1948242 C61.4731445,20.5415039 60.6967773,20.7148438 59.7104492,20.7148438 C58.8120117,20.7148438 58.0234375,20.4902344 57.3447266,20.0410156 C56.6660156,19.5917969 56.253418,18.9960938 56.1069336,18.2539062 L56.1069336,18.2539062 L56.1069336,17.7265625 L53.4116211,17.7265625 L53.4116211,23 L56.1069336,23 L56.1069336,22.1650391 C56.5756836,22.4775391 57.1591797,22.7387695 57.8574219,22.9487305 C58.5556641,23.1586914 59.2661133,23.2636719 59.9887695,23.2636719 Z" id="it’s"></path>
        </g>
    </g>
</svg>